<svg width="34" height="34" viewBox="0 0 34 34" fill="none" xmlns="http://www.w3.org/2000/svg">
<circle opacity="0.4" cx="17" cy="17" r="17" fill="#D9D9D9"/>
<path d="M22.6287 25.8183C21.8221 26.0566 20.8687 26.1666 19.7504 26.1666H14.2504C13.1321 26.1666 12.1787 26.0566 11.3721 25.8183C11.5737 23.435 14.0212 21.5558 17.0004 21.5558C19.9796 21.5558 22.4271 23.435 22.6287 25.8183Z" stroke="#292D32" stroke-width="1.5" stroke-linecap="round" stroke-linejoin="round"/>
<path d="M19.7497 7.83331H14.2497C9.66634 7.83331 7.83301 9.66665 7.83301 14.25V19.75C7.83301 23.215 8.87801 25.1125 11.3713 25.8183C11.573 23.435 14.0205 21.5558 16.9997 21.5558C19.9788 21.5558 22.4263 23.435 22.628 25.8183C25.1213 25.1125 26.1663 23.215 26.1663 19.75V14.25C26.1663 9.66665 24.333 7.83331 19.7497 7.83331ZM16.9997 18.9891C15.1847 18.9891 13.718 17.5133 13.718 15.6983C13.718 13.8833 15.1847 12.4166 16.9997 12.4166C18.8147 12.4166 20.2813 13.8833 20.2813 15.6983C20.2813 17.5133 18.8147 18.9891 16.9997 18.9891Z" stroke="#292D32" stroke-width="1.5" stroke-linecap="round" stroke-linejoin="round"/>
<path d="M20.2821 15.6984C20.2821 17.5134 18.8154 18.9892 17.0004 18.9892C15.1854 18.9892 13.7188 17.5134 13.7188 15.6984C13.7188 13.8834 15.1854 12.4167 17.0004 12.4167C18.8154 12.4167 20.2821 13.8834 20.2821 15.6984Z" stroke="#292D32" stroke-width="1.5" stroke-linecap="round" stroke-linejoin="round"/>
</svg>
