<?xml version="1.0" encoding="utf-8"?>
<!-- Generator: Adobe Illustrator 25.0.1, SVG Export Plug-In . SVG Version: 6.00 Build 0)  -->
<svg version="1.1" id="Layer_1" xmlns="http://www.w3.org/2000/svg" xmlns:xlink="http://www.w3.org/1999/xlink" x="0px" y="0px"
	 viewBox="0 0 841.9 262" style="enable-background:new 0 0 841.9 262;" xml:space="preserve">
<style type="text/css">
	.st0{fill:#FFFFFF;}
</style>
<g>
	<g>
		<path class="st0" d="M369.7,109.9c-7.7-3.2-17.3-4.9-28.8-4.9c-8.2,0-15.7,0.8-22.4,2.4s-12.5,4-17.4,7.3
			c-4.9,3.2-9.1,7.3-12.3,12.1c-3.3,4.8-5.8,10.4-7.4,16.8c-1.6,6.4-2.5,13.6-2.5,21.5c0,9.7,2,17.8,6,24.3
			c4,6.5,9.9,11.5,17.7,14.7c1.3,0.5,2.6,1,3.9,1.5h-0.5c9.6,3.7,17.9,6.8,25.1,9.5c7.1,2.7,13.2,4.9,18.3,6.8
			c5.1,1.9,9.3,3.4,12.8,4.6c3.4,1.2,6.2,2.1,8.3,2.8c2.1,0.7,3.7,1.2,4.8,1.5c1.1,0.3,1.9,0.5,2.5,0.5c0.5,0,0.9,0.1,1.2,0.1
			c0.7,0,1.4-0.6,2.3-1.7c0.8-1.1,1.6-2.5,2.4-4.1c0.8-1.6,1.4-3.2,1.9-4.8c0.5-1.5,0.7-2.8,0.7-3.8c0-0.7-0.2-1.2-0.5-1.7
			c-0.3-0.4-1-0.8-2.1-0.9l-31.2-6.8v-0.5c0.5-0.1,1-0.2,1.5-0.3c6.6-1.6,12.3-4.1,17.3-7.3c4.9-3.2,9-7.2,12.3-12.1
			c3.2-4.8,5.7-10.5,7.3-16.9c1.6-6.4,2.5-13.6,2.5-21.6c0-9.7-2-17.8-6-24.3C383.3,118,377.4,113.2,369.7,109.9z M368.7,165.3
			c-1,4.1-2.4,7.7-4.4,10.7c-1.9,3.1-4.4,5.7-7.3,7.8c-2.9,2.1-6.3,3.6-10.2,4.6c-3.9,1-8.4,1.5-13.3,1.5c-10.3,0-18.1-2.3-23.5-7
			c-5.4-4.6-8.1-11.6-8.1-20.8c0-5.1,0.5-9.7,1.5-13.8c1-4.1,2.4-7.6,4.4-10.7c1.9-3,4.4-5.6,7.3-7.6c3-2,6.4-3.6,10.4-4.6
			c4-1,8.4-1.5,13.4-1.5c10.2,0,17.9,2.3,23.2,6.8c5.3,4.6,8,11.4,8,20.6C370.1,156.7,369.6,161.3,368.7,165.3z"/>
		<path class="st0" d="M499.5,202.4l-26-91.4c-0.4-1.4-1-2.4-1.8-3.1c-0.8-0.7-2-1.2-3.4-1.5s-3.3-0.4-5.7-0.4h-8.7
			c-2.2,0-4.1,0.1-5.6,0.4c-1.5,0.3-2.7,0.8-3.6,1.5c-0.9,0.7-1.7,1.7-2.4,3L397,202.4c-0.3,0.5-0.5,0.9-0.7,1.4
			c-0.1,0.4-0.2,0.8-0.2,1.2c0,1,0.5,1.7,1.4,2.3s2.8,0.9,5.6,0.9h9.3c1.7,0,3.3-0.3,4.6-0.9s2.3-1.7,3.1-3.3l8.2-17.4h43.9
			l4.4,17.3c0.5,1.8,1.4,3,2.8,3.6c1.4,0.5,3.2,0.8,5.3,0.8h7.3c2.8,0,4.8-0.3,6.1-0.9c1.3-0.6,1.9-1.4,1.9-2.3c0-0.4,0-0.8-0.1-1.2
			S499.7,202.8,499.5,202.4z M436.6,168.9l15.9-33.8c0.8-1.5,1.5-3.1,2.2-4.6c0.7-1.5,1.3-3.1,1.7-4.6h0.6c0.3,1.7,0.6,3.4,1,5.1
			c0.4,1.6,0.7,3.1,1,4.2l8.7,33.8H436.6z"/>
		<path class="st0" d="M581.5,188.8h-43.7l8.1-78c0.3-3.3-2.5-4.9-8.3-4.9h-5.1c-3,0-5.2,0.4-6.7,1.2c-1.5,0.8-2.3,2-2.5,3.6
			l-9.6,91.4c-0.2,2,0.1,3.5,0.9,4.4c0.8,0.9,2.3,1.4,4.6,1.4h60.1c1.5,0,2.7-0.5,3.5-1.6c0.8-1.1,1.3-2.9,1.6-5.4l0.6-4.8
			c0.3-2.5,0.1-4.4-0.4-5.5C584.1,189.4,583,188.8,581.5,188.8z"/>
		<path class="st0" d="M613.7,186.7c-1.4-0.8-3.6-1.2-6.7-1.2h-4.6c-3,0-5.2,0.4-6.6,1.2c-1.4,0.8-2.2,1.9-2.4,3.5l-1.3,13.4
			c-0.3,3.1,2.5,4.6,8.4,4.6h4.6c3.1,0,5.3-0.4,6.8-1.2c1.4-0.8,2.2-1.9,2.3-3.5l1.3-13.4C615.6,188.6,615.1,187.4,613.7,186.7z"/>
		<path class="st0" d="M725.1,202.4l-26-91.4c-0.4-1.4-1-2.4-1.8-3.1c-0.8-0.7-2-1.2-3.4-1.5c-1.5-0.3-3.3-0.4-5.7-0.4h-8.7
			c-2.2,0-4.1,0.1-5.6,0.4c-1.5,0.3-2.7,0.8-3.6,1.5c-0.9,0.7-1.7,1.7-2.4,3l-45.3,91.5c-0.3,0.5-0.5,0.9-0.7,1.4s-0.2,0.8-0.2,1.2
			c0,1,0.5,1.7,1.4,2.3s2.8,0.9,5.6,0.9h9.3c1.7,0,3.3-0.3,4.6-0.9c1.3-0.6,2.3-1.7,3.1-3.3l8.2-17.4h43.9l4.4,17.3
			c0.5,1.8,1.4,3,2.8,3.6c1.4,0.5,3.2,0.8,5.3,0.8h7.3c2.8,0,4.8-0.3,6.1-0.9c1.3-0.6,1.9-1.4,1.9-2.3c0-0.4,0-0.8-0.1-1.2
			C725.4,203.3,725.3,202.8,725.1,202.4z M662.1,168.9l15.9-33.8c0.8-1.5,1.5-3.1,2.2-4.6c0.7-1.5,1.3-3.1,1.7-4.6h0.6
			c0.3,1.7,0.6,3.4,1,5.1c0.4,1.6,0.7,3.1,1,4.2l8.7,33.8H662.1z"/>
		<path class="st0" d="M829.5,114.8c-0.1-1.3-0.4-2.5-0.9-3.8c-0.4-1.3-1-2.4-1.7-3.3c-0.7-0.9-1.7-1.4-2.8-1.4h-74.4
			c-1.6,0-2.7,0.5-3.5,1.6c-0.8,1.1-1.3,2.9-1.6,5.4L744,118c-0.3,2.5-0.1,4.4,0.4,5.5c0.6,1.2,1.6,1.7,3.2,1.7h49.1L735.8,191
			c-0.9,1-1.3,1.9-1.4,2.7c0,0.8-0.1,1.7-0.1,2.7c0,0.7,0.1,1.6,0.2,2.9c0.1,1.3,0.4,2.5,0.9,3.8c0.4,1.3,1,2.4,1.7,3.3
			c0.7,0.9,1.7,1.4,2.8,1.4h77.4c1.5,0,2.7-0.5,3.5-1.6c0.8-1.1,1.3-2.9,1.6-5.4l0.6-4.8c0.3-2.5,0.1-4.4-0.4-5.5s-1.6-1.7-3.2-1.7
			H767l60.9-65.9c0.9-1,1.4-1.8,1.5-2.6c0.1-0.8,0.2-1.6,0.2-2.6C829.7,117,829.6,116,829.5,114.8z"/>
	</g>
	<g>
		<path class="st0" d="M186.6,228.6H47.9c-10.2,0-19.8-4.2-26.5-11.6c-6.8-7.5-10-17.6-8.9-27.8l9-83.3c1.4-13.3,8.7-25.6,19.9-33.6
			l66.8-48c17.2-12.4,39.9-11.9,55.2,1.1l56.5,48c10.6,9,16.1,22.9,14.5,37.1l-9,83.3C223.3,213.3,206.3,228.6,186.6,228.6z
			 M137.2,43.4c-3.9,0-8.1,1.4-11.8,4l-66.9,48c-5.1,3.7-8.6,9.3-9.2,15.1l-9,83.3c-0.2,2.1,0.2,3.9,1.3,5.1
			c1.3,1.4,3.2,1.7,4.5,1.7H185c5.9,0,11.8-5.4,12.5-11.4l9-83.3c0.5-4.7-1-9-4-11.6c0,0,0,0,0,0l-56.5-48
			C143.6,44.4,140.5,43.4,137.2,43.4z"/>
		<path class="st0" d="M122,182.2c-19.5,0-38.7-4.7-53.1-13.9c-6.7-4.3-8.9-13-5-19.5c3.9-6.4,12.5-8.1,19.2-3.8
			c19.4,12.6,55.1,12.3,77.9-0.7c6.6-3.7,15.2-1.2,19.4,5.6c4.1,6.8,2.1,15.3-4.4,19C160.4,177.8,141,182.2,122,182.2z"/>
	</g>
	<circle class="st0" cx="233.2" cy="232.6" r="14"/>
</g>
</svg>
