<?xml version="1.0" encoding="utf-8"?>
<!-- Generator: Adobe Illustrator 25.0.1, SVG Export Plug-In . SVG Version: 6.00 Build 0)  -->
<svg version="1.1" id="Layer_1" xmlns="http://www.w3.org/2000/svg" xmlns:xlink="http://www.w3.org/1999/xlink" x="0px" y="0px"
	 viewBox="0 0 255.1 255.1" style="enable-background:new 0 0 255.1 255.1;" xml:space="preserve">
<style type="text/css">
	.st0{fill:#4F46E5;}
</style>
<g>
	<g>
		<path class="st0" d="M184.5,225.2H45.7c-10.2,0-19.8-4.2-26.5-11.6c-6.8-7.5-10-17.6-8.9-27.8l9-83.3c1.4-13.3,8.7-25.6,19.9-33.6
			l66.8-48C123.2,8.6,145.9,9,161.2,22l56.5,48c10.6,9,16.1,22.9,14.5,37.1l-9,83.3C221.1,209.9,204.1,225.2,184.5,225.2z M135,40
			c-3.9,0-8.1,1.4-11.8,4L56.4,92c-5.1,3.7-8.6,9.3-9.2,15.1l-9,83.3c-0.2,2.1,0.2,3.9,1.3,5.1c1.3,1.4,3.2,1.7,4.5,1.7h138.8
			c5.9,0,11.8-5.4,12.5-11.4l9-83.3c0.5-4.7-1-9-4-11.6c0,0,0,0,0,0l-56.5-48C141.4,40.9,138.3,40,135,40z"/>
		<path class="st0" d="M119.8,178.7c-19.5,0-38.7-4.7-53.1-13.9c-6.7-4.3-8.9-13-5-19.5c3.9-6.4,12.5-8.1,19.2-3.8
			c19.4,12.6,55.1,12.3,77.9-0.7c6.6-3.7,15.2-1.2,19.4,5.6c4.1,6.8,2.1,15.3-4.4,19C158.2,174.3,138.9,178.7,119.8,178.7z"/>
	</g>
	<circle class="st0" cx="231" cy="229.1" r="14"/>
</g>
</svg>
